PathFileType	4	(X/Y/Z)	HSS_squat1.trc
DataRate	CameraRate	NumFrames	NumMarkers	Units	OrigDataRate	OrigDataStartFrame	OrigNumFrames
120.0	120.0	4	44	mm	120.0	545	1088
Frame#	Time		R.Shoulder		Offset		L.Shoulder		R.Elbow		R.Wrist.Radial		R.Wrist		R.Hand		L.Elbow		L.Wrist.Radial		L.Wrist		L.Hand		R.Hip		V.Sacral		L.PSIS		L.Hip		R.Thigh.Upper		R.Thigh.Front		R.Thigh.Rear		X.Shell.Lower.Thigh.Right		R.Knee.Lateral		R.Shank.Upper		R.Shank.Front		R.Shank.Rear		X.Shell.Lower.Shank.Right		R.Ankle.Lateral		R.Heel		R.Toe		L.Thigh.Upper		L.Thigh.Front		L.Thigh.Rear		X.Shell.Lower.Thigh.Left		L.Knee.Lateral		L.Shank.Upper		L.Shank.Front		L.Shank.Rear		X.Shell.Lower.Shank.Left		L.Ankle.Lateral		L.Heel		L.Toe		R.Troc		L.Troc		R.PSIS		L.ASIS		R.ASIS
			X1	Y1	Z1	X2	Y2	Z2	X3	Y3	Z3	X4	Y4	Z4	X5	Y5	Z5	X6	Y6	Z6	X7	Y7	Z7	X8	Y8	Z8	X9	Y9	Z9	X10	Y10	Z10	X11	Y11	Z11	X12	Y12	Z12	X13	Y13	Z13	X14	Y14	Z14	X15	Y15	Z15	X16	Y16	Z16	X17	Y17	Z17	X18	Y18	Z18	X19	Y19	Z19	X20	Y20	Z20	X21	Y21	Z21	X22	Y22	Z22	X23	Y23	Z23	X24	Y24	Z24	X25	Y25	Z25	X26	Y26	Z26	X27	Y27	Z27	X28	Y28	Z28	X29	Y29	Z29	X30	Y30	Z30	X31	Y31	Z31	X32	Y32	Z32	X33	Y33	Z33	X34	Y34	Z34	X35	Y35	Z35	X36	Y36	Z36	X37	Y37	Z37	X38	Y38	Z38	X39	Y39	Z39	X40	Y40	Z40	X41	Y41	Z41	X42	Y42	Z42	X43	Y43	Z43	X44	Y44	Z44

545	4.53333	136.91859	1326.36060	-199.71690	-153.99239	1277.87378	-65.41722	-188.20679	1341.19397	-218.89160	242.00253	1083.24890	-432.39249	35.58092	1108.12793	-601.24084	110.62684	1132.16907	-663.45355	34.87466	1149.50232	-701.82605	-302.85919	1119.22864	-467.78317	-149.13882	1153.23633	-676.24896	-102.33382	1117.99011	-633.86237	-64.76601	1144.09668	-706.52667	112.08698	907.12286	-34.13971	-43.87979	930.89685	86.92712	-82.62935	936.79816	75.25800	-184.16479	898.74847	-47.89595	199.77559	665.94305	-150.94751	192.07774	658.04926	-202.47636	214.25586	622.84033	-156.49081	204.06813	614.56848	-201.04588	196.46742	489.48349	-218.77602	249.06271	356.55530	-190.92551	229.16675	306.03699	-206.81447	236.21635	329.32928	-150.65762	230.90773	283.88916	-162.90567	192.48921	72.20749	-88.74375	143.83444	34.44359	-41.80505	202.14714	32.46640	-237.42290	-240.48732	665.01367	-181.76552	-224.02364	640.21289	-231.16560	-258.83646	619.80811	-182.81367	-250.62437	610.63104	-226.28300	-231.02654	475.40945	-244.48077	-281.93436	300.15576	-171.35095	-267.35156	267.84430	-190.64104	-269.68033	272.01630	-129.94199	-274.07672	235.69931	-142.43434	-240.77422	74.08495	-103.08417	-195.50545	35.95896	-42.98681	-242.82812	32.71915	-241.16824	158.94409	820.43439	-25.44527	-226.00009	815.10602	-34.69284	0.04777	939.00323	80.43846	-140.74194	847.48370	-90.73048	82.93790	853.71893	-76.20542
546	4.54167	137.00165	1323.19006	-200.48610	-153.85439	1274.98633	-66.04581	-187.85928	1338.02368	-219.59831	241.90694	1080.71875	-433.49713	35.40315	1105.68994	-602.50500	110.87713	1129.73975	-664.75989	35.05841	1146.96143	-703.00488	-302.35294	1116.51855	-468.73270	-148.82191	1150.67139	-677.45166	-102.01420	1115.36243	-635.27112	-64.69151	1141.51501	-708.14838	112.14126	904.51965	-33.55839	-43.77910	928.38794	87.72925	-82.52636	934.24237	75.81996	-184.09619	896.00262	-47.24198	200.00885	664.98816	-151.01985	192.38516	657.33319	-202.63187	214.52649	621.79779	-156.82701	204.39873	613.83881	-201.41151	196.82527	488.82642	-220.09506	249.33420	356.15063	-192.04813	229.25212	305.52637	-207.94371	236.37024	328.95380	-151.81317	230.59264	283.54169	-163.37326	192.37149	72.20020	-88.82944	143.65712	34.45921	-41.86930	202.18092	32.43719	-237.44058	-240.41580	663.90796	-181.86197	-224.02370	639.45721	-231.35858	-258.66022	618.66376	-183.13277	-250.65001	609.89319	-226.71844	-231.03691	474.58606	-245.86888	-281.87839	299.96738	-172.20821	-267.18011	267.52600	-191.36763	-269.53555	271.91452	-130.67043	-273.95331	235.53677	-143.13144	-240.68484	74.08915	-103.13715	-195.33400	35.97370	-43.05336	-242.85056	32.70062	-241.18909	158.93208	818.80585	-24.74393	-226.08682	813.15216	-33.82501	0.11343	936.42377	81.04362	-140.77951	844.73730	-90.07993	82.97691	851.20056	-75.73052
547	4.55000	137.10741	1319.96533	-201.21085	-153.69910	1272.08069	-66.70137	-187.52142	1334.91638	-220.32802	241.78609	1078.15942	-434.65363	35.23973	1103.22571	-603.77795	111.09523	1127.27844	-665.94403	35.28765	1144.46802	-704.52783	-301.71982	1113.84204	-469.90417	-148.56993	1148.06616	-678.65302	-101.95670	1112.79065	-636.46149	-64.41479	1138.92126	-709.34863	112.13972	901.90973	-33.33400	-43.76945	925.77844	88.29426	-82.58988	931.70496	76.50803	-184.01640	893.25574	-46.58879	200.28665	663.80237	-151.21935	192.67850	656.64581	-202.81183	214.80113	620.72028	-157.33913	204.59337	612.96698	-201.86404	197.18033	488.04068	-221.42349	249.44739	355.57297	-193.12221	229.44293	304.94769	-208.68320	236.57335	328.73563	-152.84987	230.63126	283.14627	-164.34029	192.29160	72.21465	-88.90629	143.52766	34.49101	-41.89094	202.18692	32.42607	-237.43466	-240.25328	662.77905	-181.91446	-223.98468	638.72034	-231.56563	-258.61050	617.65149	-183.42522	-250.70277	609.02795	-227.10194	-230.98152	474.00723	-247.19954	-281.70926	299.65826	-173.17096	-267.12030	267.20810	-192.10204	-269.43591	271.80200	-131.49423	-273.86575	235.37221	-143.79976	-240.53343	74.13088	-103.19482	-195.13431	36.00063	-43.08835	-242.89165	32.69212	-241.19238	159.02011	817.07513	-23.90822	-226.13641	811.19183	-33.12926	0.12822	933.87323	81.78635	-140.74457	841.98883	-89.44410	83.09389	848.57062	-75.14840
548	4.55833	137.20560	1316.80371	-201.78735	-153.59869	1269.12744	-67.34767	-187.18146	1331.74219	-220.98488	241.73714	1075.58325	-435.74124	35.09044	1100.73535	-605.05951	111.36778	1124.70740	-667.25409	35.46626	1141.92395	-705.85718	-301.16803	1111.17395	-470.82483	-148.26930	1145.33838	-679.98822	-101.46429	1110.12573	-638.18732	-64.09130	1136.20972	-710.70990	112.11732	899.28162	-32.68995	-43.73132	923.25781	88.70107	-82.47045	929.11273	77.07454	-184.02690	890.46558	-46.08665	200.50363	662.72803	-151.26443	192.85077	655.81189	-203.03999	214.98418	619.60596	-157.70590	205.00436	612.31390	-202.49139	197.52223	487.38846	-222.57765	249.73613	355.07205	-194.37161	229.65430	304.32193	-209.66537	236.63113	328.38220	-153.82446	230.80176	282.74881	-165.42848	192.21545	72.22678	-89.03352	143.40057	34.53393	-41.96113	202.23245	32.42058	-237.43794	-240.23105	661.65680	-181.78850	-223.92073	637.92969	-231.74666	-258.44098	616.39917	-183.82819	-250.56821	608.27631	-227.37463	-230.93391	473.36761	-248.54398	-281.52762	299.45151	-173.92464	-267.07651	266.94040	-192.98694	-269.22296	271.67322	-132.21095	-273.72836	235.22330	-144.35144	-240.39795	74.12850	-103.26952	-194.99960	36.06404	-43.15762	-242.91519	32.71589	-241.24515	159.02271	815.42389	-23.22034	-226.18393	809.01636	-32.33127	0.07098	931.31445	82.37219	-140.71182	839.26257	-88.71841	83.13268	845.94568	-74.59312
